<svg width="18" height="18" viewBox="0 0 18 18" fill="none" xmlns="http://www.w3.org/2000/svg">
<path d="M16.2438 10.9084V6.71638M4.04874 10.1462V4.81091C4.04874 3.54808 5.07247 2.52435 6.3353 2.52435H10.1462" stroke="white" stroke-width="2" stroke-linecap="round" stroke-linejoin="round"/>
<path d="M12.4269 3.28656H14.7134M14.7134 3.28656H17M14.7134 3.28656V1M14.7134 3.28656V5.57312" stroke="white" stroke-width="2" stroke-linecap="round" stroke-linejoin="round"/>
<path d="M8.62189 16.2437H4.04875C2.36497 16.2437 1 14.8787 1 13.195C1 11.5112 2.36497 10.1462 4.04875 10.1462H12.4328H13.195C11.5113 10.1462 10.1463 11.5112 10.1463 13.195C10.1463 14.8787 11.5113 16.2437 13.195 16.2437C14.8788 16.2437 16.2438 14.8787 16.2438 13.195V10.9084" stroke="white" stroke-width="2" stroke-linecap="round" stroke-linejoin="round"/>
</svg>
