<svg width="18" height="18" viewBox="0 0 18 18" fill="none" xmlns="http://www.w3.org/2000/svg">
<path d="M7.22218 6.33333H3.66663" stroke="white" stroke-width="2" stroke-linecap="round" stroke-linejoin="round"/>
<path d="M12.1111 8.11112C10.8838 8.11112 9.88892 7.11619 9.88892 5.88889C9.88892 4.6616 10.8838 3.66667 12.1111 3.66667C13.3384 3.66667 14.3334 4.6616 14.3334 5.88889C14.3334 7.11619 13.3384 8.11112 12.1111 8.11112Z" stroke="white" stroke-width="2" stroke-linecap="round" stroke-linejoin="round"/>
<path d="M3.66663 3.66667H6.33329" stroke="white" stroke-width="2" stroke-linecap="round" stroke-linejoin="round"/>
<path d="M14.3333 14.3333L10.3333 11.6667L8.11107 13.4444L3.66663 9.88889" stroke="white" stroke-width="2" stroke-linecap="round" stroke-linejoin="round"/>
<path d="M1 16.4667V1.53333C1 1.23878 1.23878 1 1.53333 1H16.4667C16.7612 1 17 1.23878 17 1.53333V16.4667C17 16.7612 16.7612 17 16.4667 17H1.53333C1.23878 17 1 16.7612 1 16.4667Z" stroke="white" stroke-width="2"/>
</svg>
