<svg width="20" height="18" viewBox="0 0 20 18" fill="none" xmlns="http://www.w3.org/2000/svg">
<path d="M16.6118 17H2.95147C1.8737 17 1 16.1263 1 15.0485V6.26689C1 5.18912 1.8737 4.31542 2.95147 4.31542H16.6118C17.6896 4.31542 18.5633 5.18912 18.5633 6.26689V15.0485C18.5633 16.1263 17.6896 17 16.6118 17Z" stroke="white" stroke-width="2"/>
<path d="M14.1724 11.1456C13.903 11.1456 13.6846 10.9271 13.6846 10.6577C13.6846 10.3883 13.903 10.1698 14.1724 10.1698C14.4418 10.1698 14.6603 10.3883 14.6603 10.6577C14.6603 10.9271 14.4418 11.1456 14.1724 11.1456Z" stroke="white" stroke-width="2" stroke-linecap="round" stroke-linejoin="round"/>
<path d="M15.6361 4.31543V2.95254C15.6361 1.67036 14.4207 0.736591 13.1818 1.06696L2.44865 3.92913C1.59439 4.15693 1 4.9306 1 5.81471V6.26691" stroke="white" stroke-width="2"/>
</svg>
